<svg xmlns="http://www.w3.org/2000/svg" width="32" height="32" viewBox="0 0 24 24" fill="none">
  <!-- Nine-pillar grid; five nodes flare into a NE arrow of four-point sparks. -->
  <circle cx="5" cy="5" r="2" fill="#8b949e"/>
  <circle cx="5" cy="12" r="2" fill="#8b949e"/>
  <circle cx="12" cy="19" r="2" fill="#8b949e"/>
  <circle cx="19" cy="19" r="2" fill="#8b949e"/>
  <path d="M19,1.1 Q19.7,4.298 22.9,5 Q19.7,5.702 19,8.9 Q18.3,5.702 15.1,5 Q18.3,4.298 19,1.1 Z" fill="#3fb950"/>
  <path d="M12,1.6 Q12.612,4.388 15.4,5 Q12.612,5.612 12,8.4 Q11.388,5.612 8.6,5 Q11.388,4.388 12,1.6 Z" fill="#3fb950"/>
  <path d="M19,8.6 Q19.612,11.388 22.4,12 Q19.612,12.612 19,15.4 Q18.388,12.612 15.6,12 Q18.388,11.388 19,8.6 Z" fill="#3fb950"/>
  <path d="M12,8.6 Q12.612,11.388 15.4,12 Q12.612,12.612 12,15.4 Q11.388,12.612 8.6,12 Q11.388,11.388 12,8.6 Z" fill="#3fb950"/>
  <path d="M5,15.6 Q5.612,18.388 8.4,19 Q5.612,19.612 5,22.4 Q4.388,19.612 1.6,19 Q4.388,18.388 5,15.6 Z" fill="#3fb950"/>
</svg>
